<?xml version="1.0" encoding="utf-8" standalone="no"?>
<!DOCTYPE svg PUBLIC "-//W3C//DTD SVG 1.1//EN"
  "http://www.w3.org/Graphics/SVG/1.1/DTD/svg11.dtd">
<!-- Created with matplotlib (http://matplotlib.org/) -->
<svg height="381pt" version="1.1" viewBox="0 0 478 381" width="478pt" xmlns="http://www.w3.org/2000/svg" xmlns:xlink="http://www.w3.org/1999/xlink">
 <defs>
  <style type="text/css">
*{stroke-linecap:butt;stroke-linejoin:round;}
  </style>
 </defs>
 <g id="figure_1">
  <g id="patch_1">
   <path d="
M0 381.421
L478.686 381.421
L478.686 0
L0 0
z
" style="fill:#ffffff;"/>
  </g>
  <g id="axes_1">
   <g id="patch_2">
    <path d="
M25.0862 358.607
L122.13 358.607
L122.13 13.0069
L25.0862 13.0069
z
" style="fill:#ffffff;"/>
   </g>
   <g id="line2d_1">
    <path clip-path="url(#p520960e547)" d="
M73.608 352.079
L73.608 358.607" style="fill:none;stroke:#0000ff;stroke-dasharray:6.000000,6.000000;stroke-dashoffset:0.0;"/>
   </g>
   <g id="line2d_2">
    <path clip-path="url(#p520960e547)" d="
M73.608 280.655
L73.608 178.895" style="fill:none;stroke:#0000ff;stroke-dasharray:6.000000,6.000000;stroke-dashoffset:0.0;"/>
   </g>
   <g id="line2d_3">
    <path clip-path="url(#p520960e547)" d="
M69.9689 178.895
L77.2471 178.895" style="fill:none;stroke:#000000;stroke-linecap:square;"/>
   </g>
   <g id="line2d_4">
    <path clip-path="url(#p520960e547)" d="
M69.9689 358.607
L77.2471 358.607" style="fill:none;stroke:#000000;stroke-linecap:square;"/>
   </g>
   <g id="line2d_5">
    <path clip-path="url(#p520960e547)" d="
M66.3297 352.079
L80.8863 352.079
L80.8863 358.266
L77.2471 342.863
L80.8863 327.46
L80.8863 280.655
L66.3297 280.655
L66.3297 327.46
L69.9689 342.863
L66.3297 358.266
L66.3297 352.079" style="fill:none;stroke:#0000ff;stroke-linecap:square;"/>
   </g>
   <g id="line2d_6">
    <path clip-path="url(#p520960e547)" d="
M69.9689 342.863
L77.2471 342.863" style="fill:none;stroke:#ff0000;stroke-linecap:square;"/>
   </g>
   <g id="line2d_7">
    <defs>
     <path d="
M-3 0
L3 0
M0 3
L0 -3" id="md4acab13e0" style="stroke:#0000ff;stroke-width:0.5;"/>
    </defs>
    <g clip-path="url(#p520960e547)">
     <use style="fill:#0000ff;stroke:#0000ff;stroke-width:0.5;" x="73.6079891304" xlink:href="#md4acab13e0" y="67.534875"/>
     <use style="fill:#0000ff;stroke:#0000ff;stroke-width:0.5;" x="73.6079891304" xlink:href="#md4acab13e0" y="13.774875"/>
     <use style="fill:#0000ff;stroke:#0000ff;stroke-width:0.5;" x="73.6079891304" xlink:href="#md4acab13e0" y="151.246875"/>
     <use style="fill:#0000ff;stroke:#0000ff;stroke-width:0.5;" x="73.6079891304" xlink:href="#md4acab13e0" y="41.038875"/>
     <use style="fill:#0000ff;stroke:#0000ff;stroke-width:0.5;" x="73.6079891304" xlink:href="#md4acab13e0" y="101.710875"/>
     <use style="fill:#0000ff;stroke:#0000ff;stroke-width:0.5;" x="73.6079891304" xlink:href="#md4acab13e0" y="173.134875"/>
    </g>
   </g>
   <g id="line2d_8"/>
   <g id="matplotlib.axis_1">
    <g id="xtick_1">
     <g id="line2d_9">
      <defs>
       <path d="
M0 0
L0 -4" id="m93b0483c22" style="stroke:#000000;stroke-width:0.5;"/>
      </defs>
      <g>
       <use style="stroke:#000000;stroke-width:0.5;" x="73.6079891304" xlink:href="#m93b0483c22" y="358.606875"/>
      </g>
     </g>
     <g id="line2d_10">
      <defs>
       <path d="
M0 0
L0 4" id="m741efc42ff" style="stroke:#000000;stroke-width:0.5;"/>
      </defs>
      <g>
       <use style="stroke:#000000;stroke-width:0.5;" x="73.6079891304" xlink:href="#m741efc42ff" y="13.006875"/>
      </g>
     </g>
     <g id="text_1">
      <!-- 1 -->
      <defs>
       <path d="
M12.4062 8.29688
L28.5156 8.29688
L28.5156 63.9219
L10.9844 60.4062
L10.9844 69.3906
L28.4219 72.9062
L38.2812 72.9062
L38.2812 8.29688
L54.3906 8.29688
L54.3906 0
L12.4062 0
z
" id="DejaVuSans-31"/>
      </defs>
      <g transform="translate(71.0036141304 371.725)scale(0.12 -0.12)">
       <use xlink:href="#DejaVuSans-31"/>
      </g>
     </g>
    </g>
   </g>
   <g id="matplotlib.axis_2">
    <g id="ytick_1">
     <g id="line2d_11">
      <defs>
       <path d="
M0 0
L4 0" id="m728421d6d4" style="stroke:#000000;stroke-width:0.5;"/>
      </defs>
      <g>
       <use style="stroke:#000000;stroke-width:0.5;" x="25.08625" xlink:href="#m728421d6d4" y="358.606875"/>
      </g>
     </g>
     <g id="line2d_12">
      <defs>
       <path d="
M0 0
L-4 0" id="mcb0005524f" style="stroke:#000000;stroke-width:0.5;"/>
      </defs>
      <g>
       <use style="stroke:#000000;stroke-width:0.5;" x="122.129728261" xlink:href="#mcb0005524f" y="358.606875"/>
      </g>
     </g>
     <g id="text_2">
      <!-- 0 -->
      <defs>
       <path d="
M31.7812 66.4062
Q24.1719 66.4062 20.3281 58.9062
Q16.5 51.4219 16.5 36.375
Q16.5 21.3906 20.3281 13.8906
Q24.1719 6.39062 31.7812 6.39062
Q39.4531 6.39062 43.2812 13.8906
Q47.125 21.3906 47.125 36.375
Q47.125 51.4219 43.2812 58.9062
Q39.4531 66.4062 31.7812 66.4062
M31.7812 74.2188
Q44.0469 74.2188 50.5156 64.5156
Q56.9844 54.8281 56.9844 36.375
Q56.9844 17.9688 50.5156 8.26562
Q44.0469 -1.42188 31.7812 -1.42188
Q19.5312 -1.42188 13.0625 8.26562
Q6.59375 17.9688 6.59375 36.375
Q6.59375 54.8281 13.0625 64.5156
Q19.5312 74.2188 31.7812 74.2188" id="DejaVuSans-30"/>
      </defs>
      <g transform="translate(15.039375 361.918125)scale(0.12 -0.12)">
       <use xlink:href="#DejaVuSans-30"/>
      </g>
     </g>
    </g>
    <g id="ytick_2">
     <g id="line2d_13">
      <g>
       <use style="stroke:#000000;stroke-width:0.5;" x="25.08625" xlink:href="#m728421d6d4" y="320.206875"/>
      </g>
     </g>
     <g id="line2d_14">
      <g>
       <use style="stroke:#000000;stroke-width:0.5;" x="122.129728261" xlink:href="#mcb0005524f" y="320.206875"/>
      </g>
     </g>
     <g id="text_3">
      <!-- 10 -->
      <g transform="translate(7.93125 323.518125)scale(0.12 -0.12)">
       <use xlink:href="#DejaVuSans-31"/>
       <use x="63.623046875" xlink:href="#DejaVuSans-30"/>
      </g>
     </g>
    </g>
    <g id="ytick_3">
     <g id="line2d_15">
      <g>
       <use style="stroke:#000000;stroke-width:0.5;" x="25.08625" xlink:href="#m728421d6d4" y="281.806875"/>
      </g>
     </g>
     <g id="line2d_16">
      <g>
       <use style="stroke:#000000;stroke-width:0.5;" x="122.129728261" xlink:href="#mcb0005524f" y="281.806875"/>
      </g>
     </g>
     <g id="text_4">
      <!-- 20 -->
      <defs>
       <path d="
M19.1875 8.29688
L53.6094 8.29688
L53.6094 0
L7.32812 0
L7.32812 8.29688
Q12.9375 14.1094 22.625 23.8906
Q32.3281 33.6875 34.8125 36.5312
Q39.5469 41.8438 41.4219 45.5312
Q43.3125 49.2188 43.3125 52.7812
Q43.3125 58.5938 39.2344 62.25
Q35.1562 65.9219 28.6094 65.9219
Q23.9688 65.9219 18.8125 64.3125
Q13.6719 62.7031 7.8125 59.4219
L7.8125 69.3906
Q13.7656 71.7812 18.9375 73
Q24.125 74.2188 28.4219 74.2188
Q39.75 74.2188 46.4844 68.5469
Q53.2188 62.8906 53.2188 53.4219
Q53.2188 48.9219 51.5312 44.8906
Q49.8594 40.875 45.4062 35.4062
Q44.1875 33.9844 37.6406 27.2188
Q31.1094 20.4531 19.1875 8.29688" id="DejaVuSans-32"/>
      </defs>
      <g transform="translate(7.4925 285.118125)scale(0.12 -0.12)">
       <use xlink:href="#DejaVuSans-32"/>
       <use x="63.623046875" xlink:href="#DejaVuSans-30"/>
      </g>
     </g>
    </g>
    <g id="ytick_4">
     <g id="line2d_17">
      <g>
       <use style="stroke:#000000;stroke-width:0.5;" x="25.08625" xlink:href="#m728421d6d4" y="243.406875"/>
      </g>
     </g>
     <g id="line2d_18">
      <g>
       <use style="stroke:#000000;stroke-width:0.5;" x="122.129728261" xlink:href="#mcb0005524f" y="243.406875"/>
      </g>
     </g>
     <g id="text_5">
      <!-- 30 -->
      <defs>
       <path d="
M40.5781 39.3125
Q47.6562 37.7969 51.625 33
Q55.6094 28.2188 55.6094 21.1875
Q55.6094 10.4062 48.1875 4.48438
Q40.7656 -1.42188 27.0938 -1.42188
Q22.5156 -1.42188 17.6562 -0.515625
Q12.7969 0.390625 7.625 2.20312
L7.625 11.7188
Q11.7188 9.32812 16.5938 8.10938
Q21.4844 6.89062 26.8125 6.89062
Q36.0781 6.89062 40.9375 10.5469
Q45.7969 14.2031 45.7969 21.1875
Q45.7969 27.6406 41.2812 31.2656
Q36.7656 34.9062 28.7188 34.9062
L20.2188 34.9062
L20.2188 43.0156
L29.1094 43.0156
Q36.375 43.0156 40.2344 45.9219
Q44.0938 48.8281 44.0938 54.2969
Q44.0938 59.9062 40.1094 62.9062
Q36.1406 65.9219 28.7188 65.9219
Q24.6562 65.9219 20.0156 65.0312
Q15.375 64.1562 9.8125 62.3125
L9.8125 71.0938
Q15.4375 72.6562 20.3438 73.4375
Q25.25 74.2188 29.5938 74.2188
Q40.8281 74.2188 47.3594 69.1094
Q53.9062 64.0156 53.9062 55.3281
Q53.9062 49.2656 50.4375 45.0938
Q46.9688 40.9219 40.5781 39.3125" id="DejaVuSans-33"/>
      </defs>
      <g transform="translate(7.528125 246.718125)scale(0.12 -0.12)">
       <use xlink:href="#DejaVuSans-33"/>
       <use x="63.623046875" xlink:href="#DejaVuSans-30"/>
      </g>
     </g>
    </g>
    <g id="ytick_5">
     <g id="line2d_19">
      <g>
       <use style="stroke:#000000;stroke-width:0.5;" x="25.08625" xlink:href="#m728421d6d4" y="205.006875"/>
      </g>
     </g>
     <g id="line2d_20">
      <g>
       <use style="stroke:#000000;stroke-width:0.5;" x="122.129728261" xlink:href="#mcb0005524f" y="205.006875"/>
      </g>
     </g>
     <g id="text_6">
      <!-- 40 -->
      <defs>
       <path d="
M37.7969 64.3125
L12.8906 25.3906
L37.7969 25.3906
z

M35.2031 72.9062
L47.6094 72.9062
L47.6094 25.3906
L58.0156 25.3906
L58.0156 17.1875
L47.6094 17.1875
L47.6094 0
L37.7969 0
L37.7969 17.1875
L4.89062 17.1875
L4.89062 26.7031
z
" id="DejaVuSans-34"/>
      </defs>
      <g transform="translate(7.2 208.318125)scale(0.12 -0.12)">
       <use xlink:href="#DejaVuSans-34"/>
       <use x="63.623046875" xlink:href="#DejaVuSans-30"/>
      </g>
     </g>
    </g>
    <g id="ytick_6">
     <g id="line2d_21">
      <g>
       <use style="stroke:#000000;stroke-width:0.5;" x="25.08625" xlink:href="#m728421d6d4" y="166.606875"/>
      </g>
     </g>
     <g id="line2d_22">
      <g>
       <use style="stroke:#000000;stroke-width:0.5;" x="122.129728261" xlink:href="#mcb0005524f" y="166.606875"/>
      </g>
     </g>
     <g id="text_7">
      <!-- 50 -->
      <defs>
       <path d="
M10.7969 72.9062
L49.5156 72.9062
L49.5156 64.5938
L19.8281 64.5938
L19.8281 46.7344
Q21.9688 47.4688 24.1094 47.8281
Q26.2656 48.1875 28.4219 48.1875
Q40.625 48.1875 47.75 41.5
Q54.8906 34.8125 54.8906 23.3906
Q54.8906 11.625 47.5625 5.09375
Q40.2344 -1.42188 26.9062 -1.42188
Q22.3125 -1.42188 17.5469 -0.640625
Q12.7969 0.140625 7.71875 1.70312
L7.71875 11.625
Q12.1094 9.23438 16.7969 8.0625
Q21.4844 6.89062 26.7031 6.89062
Q35.1562 6.89062 40.0781 11.3281
Q45.0156 15.7656 45.0156 23.3906
Q45.0156 31 40.0781 35.4375
Q35.1562 39.8906 26.7031 39.8906
Q22.75 39.8906 18.8125 39.0156
Q14.8906 38.1406 10.7969 36.2812
z
" id="DejaVuSans-35"/>
      </defs>
      <g transform="translate(7.539375 169.918125)scale(0.12 -0.12)">
       <use xlink:href="#DejaVuSans-35"/>
       <use x="63.623046875" xlink:href="#DejaVuSans-30"/>
      </g>
     </g>
    </g>
    <g id="ytick_7">
     <g id="line2d_23">
      <g>
       <use style="stroke:#000000;stroke-width:0.5;" x="25.08625" xlink:href="#m728421d6d4" y="128.206875"/>
      </g>
     </g>
     <g id="line2d_24">
      <g>
       <use style="stroke:#000000;stroke-width:0.5;" x="122.129728261" xlink:href="#mcb0005524f" y="128.206875"/>
      </g>
     </g>
     <g id="text_8">
      <!-- 60 -->
      <defs>
       <path d="
M33.0156 40.375
Q26.375 40.375 22.4844 35.8281
Q18.6094 31.2969 18.6094 23.3906
Q18.6094 15.5312 22.4844 10.9531
Q26.375 6.39062 33.0156 6.39062
Q39.6562 6.39062 43.5312 10.9531
Q47.4062 15.5312 47.4062 23.3906
Q47.4062 31.2969 43.5312 35.8281
Q39.6562 40.375 33.0156 40.375
M52.5938 71.2969
L52.5938 62.3125
Q48.875 64.0625 45.0938 64.9844
Q41.3125 65.9219 37.5938 65.9219
Q27.8281 65.9219 22.6719 59.3281
Q17.5312 52.7344 16.7969 39.4062
Q19.6719 43.6562 24.0156 45.9219
Q28.375 48.1875 33.5938 48.1875
Q44.5781 48.1875 50.9531 41.5156
Q57.3281 34.8594 57.3281 23.3906
Q57.3281 12.1562 50.6875 5.35938
Q44.0469 -1.42188 33.0156 -1.42188
Q20.3594 -1.42188 13.6719 8.26562
Q6.98438 17.9688 6.98438 36.375
Q6.98438 53.6562 15.1875 63.9375
Q23.3906 74.2188 37.2031 74.2188
Q40.9219 74.2188 44.7031 73.4844
Q48.4844 72.75 52.5938 71.2969" id="DejaVuSans-36"/>
      </defs>
      <g transform="translate(7.45125 131.518125)scale(0.12 -0.12)">
       <use xlink:href="#DejaVuSans-36"/>
       <use x="63.623046875" xlink:href="#DejaVuSans-30"/>
      </g>
     </g>
    </g>
    <g id="ytick_8">
     <g id="line2d_25">
      <g>
       <use style="stroke:#000000;stroke-width:0.5;" x="25.08625" xlink:href="#m728421d6d4" y="89.806875"/>
      </g>
     </g>
     <g id="line2d_26">
      <g>
       <use style="stroke:#000000;stroke-width:0.5;" x="122.129728261" xlink:href="#mcb0005524f" y="89.806875"/>
      </g>
     </g>
     <g id="text_9">
      <!-- 70 -->
      <defs>
       <path d="
M8.20312 72.9062
L55.0781 72.9062
L55.0781 68.7031
L28.6094 0
L18.3125 0
L43.2188 64.5938
L8.20312 64.5938
z
" id="DejaVuSans-37"/>
      </defs>
      <g transform="translate(7.5975 93.118125)scale(0.12 -0.12)">
       <use xlink:href="#DejaVuSans-37"/>
       <use x="63.623046875" xlink:href="#DejaVuSans-30"/>
      </g>
     </g>
    </g>
    <g id="ytick_9">
     <g id="line2d_27">
      <g>
       <use style="stroke:#000000;stroke-width:0.5;" x="25.08625" xlink:href="#m728421d6d4" y="51.406875"/>
      </g>
     </g>
     <g id="line2d_28">
      <g>
       <use style="stroke:#000000;stroke-width:0.5;" x="122.129728261" xlink:href="#mcb0005524f" y="51.406875"/>
      </g>
     </g>
     <g id="text_10">
      <!-- 80 -->
      <defs>
       <path d="
M31.7812 34.625
Q24.75 34.625 20.7188 30.8594
Q16.7031 27.0938 16.7031 20.5156
Q16.7031 13.9219 20.7188 10.1562
Q24.75 6.39062 31.7812 6.39062
Q38.8125 6.39062 42.8594 10.1719
Q46.9219 13.9688 46.9219 20.5156
Q46.9219 27.0938 42.8906 30.8594
Q38.875 34.625 31.7812 34.625
M21.9219 38.8125
Q15.5781 40.375 12.0312 44.7188
Q8.5 49.0781 8.5 55.3281
Q8.5 64.0625 14.7188 69.1406
Q20.9531 74.2188 31.7812 74.2188
Q42.6719 74.2188 48.875 69.1406
Q55.0781 64.0625 55.0781 55.3281
Q55.0781 49.0781 51.5312 44.7188
Q48 40.375 41.7031 38.8125
Q48.8281 37.1562 52.7969 32.3125
Q56.7812 27.4844 56.7812 20.5156
Q56.7812 9.90625 50.3125 4.23438
Q43.8438 -1.42188 31.7812 -1.42188
Q19.7344 -1.42188 13.25 4.23438
Q6.78125 9.90625 6.78125 20.5156
Q6.78125 27.4844 10.7812 32.3125
Q14.7969 37.1562 21.9219 38.8125
M18.3125 54.3906
Q18.3125 48.7344 21.8438 45.5625
Q25.3906 42.3906 31.7812 42.3906
Q38.1406 42.3906 41.7188 45.5625
Q45.3125 48.7344 45.3125 54.3906
Q45.3125 60.0625 41.7188 63.2344
Q38.1406 66.4062 31.7812 66.4062
Q25.3906 66.4062 21.8438 63.2344
Q18.3125 60.0625 18.3125 54.3906" id="DejaVuSans-38"/>
      </defs>
      <g transform="translate(7.426875 54.718125)scale(0.12 -0.12)">
       <use xlink:href="#DejaVuSans-38"/>
       <use x="63.623046875" xlink:href="#DejaVuSans-30"/>
      </g>
     </g>
    </g>
    <g id="ytick_10">
     <g id="line2d_29">
      <g>
       <use style="stroke:#000000;stroke-width:0.5;" x="25.08625" xlink:href="#m728421d6d4" y="13.006875"/>
      </g>
     </g>
     <g id="line2d_30">
      <g>
       <use style="stroke:#000000;stroke-width:0.5;" x="122.129728261" xlink:href="#mcb0005524f" y="13.006875"/>
      </g>
     </g>
     <g id="text_11">
      <!-- 90 -->
      <defs>
       <path d="
M10.9844 1.51562
L10.9844 10.5
Q14.7031 8.73438 18.5 7.8125
Q22.3125 6.89062 25.9844 6.89062
Q35.75 6.89062 40.8906 13.4531
Q46.0469 20.0156 46.7812 33.4062
Q43.9531 29.2031 39.5938 26.9531
Q35.25 24.7031 29.9844 24.7031
Q19.0469 24.7031 12.6719 31.3125
Q6.29688 37.9375 6.29688 49.4219
Q6.29688 60.6406 12.9375 67.4219
Q19.5781 74.2188 30.6094 74.2188
Q43.2656 74.2188 49.9219 64.5156
Q56.5938 54.8281 56.5938 36.375
Q56.5938 19.1406 48.4062 8.85938
Q40.2344 -1.42188 26.4219 -1.42188
Q22.7031 -1.42188 18.8906 -0.6875
Q15.0938 0.046875 10.9844 1.51562
M30.6094 32.4219
Q37.25 32.4219 41.125 36.9531
Q45.0156 41.5 45.0156 49.4219
Q45.0156 57.2812 41.125 61.8438
Q37.25 66.4062 30.6094 66.4062
Q23.9688 66.4062 20.0938 61.8438
Q16.2188 57.2812 16.2188 49.4219
Q16.2188 41.5 20.0938 36.9531
Q23.9688 32.4219 30.6094 32.4219" id="DejaVuSans-39"/>
      </defs>
      <g transform="translate(7.36875 16.318125)scale(0.12 -0.12)">
       <use xlink:href="#DejaVuSans-39"/>
       <use x="63.623046875" xlink:href="#DejaVuSans-30"/>
      </g>
     </g>
    </g>
   </g>
   <g id="patch_3">
    <path d="
M25.0862 13.0069
L122.13 13.0069" style="fill:none;stroke:#000000;"/>
   </g>
   <g id="patch_4">
    <path d="
M122.13 358.607
L122.13 13.0069" style="fill:none;stroke:#000000;"/>
   </g>
   <g id="patch_5">
    <path d="
M25.0862 358.607
L122.13 358.607" style="fill:none;stroke:#000000;"/>
   </g>
   <g id="patch_6">
    <path d="
M25.0862 358.607
L25.0862 13.0069" style="fill:none;stroke:#000000;"/>
   </g>
  </g>
  <g id="axes_2">
   <g id="patch_7">
    <path d="
M141.538 358.607
L238.582 358.607
L238.582 13.0069
L141.538 13.0069
z
" style="fill:#ffffff;"/>
   </g>
   <g id="line2d_31">
    <path clip-path="url(#pc15067f768)" d="
M190.06 350.214
L190.06 358.607" style="fill:none;stroke:#0000ff;stroke-dasharray:6.000000,6.000000;stroke-dashoffset:0.0;"/>
   </g>
   <g id="line2d_32">
    <path clip-path="url(#pc15067f768)" d="
M190.06 232.71
L190.06 99.9006" style="fill:none;stroke:#0000ff;stroke-dasharray:6.000000,6.000000;stroke-dashoffset:0.0;"/>
   </g>
   <g id="line2d_33">
    <path clip-path="url(#pc15067f768)" d="
M186.421 99.9006
L193.699 99.9006" style="fill:none;stroke:#000000;stroke-linecap:square;"/>
   </g>
   <g id="line2d_34">
    <path clip-path="url(#pc15067f768)" d="
M186.421 358.607
L193.699 358.607" style="fill:none;stroke:#000000;stroke-linecap:square;"/>
   </g>
   <g id="line2d_35">
    <path clip-path="url(#pc15067f768)" d="
M182.782 350.214
L197.338 350.214
L197.338 343.155
L193.699 315.654
L197.338 288.153
L197.338 232.71
L182.782 232.71
L182.782 288.153
L186.421 315.654
L182.782 343.155
L182.782 350.214" style="fill:none;stroke:#0000ff;stroke-linecap:square;"/>
   </g>
   <g id="line2d_36">
    <path clip-path="url(#pc15067f768)" d="
M186.421 315.654
L193.699 315.654" style="fill:none;stroke:#ff0000;stroke-linecap:square;"/>
   </g>
   <g id="line2d_37">
    <g clip-path="url(#pc15067f768)">
     <use style="fill:#0000ff;stroke:#0000ff;stroke-width:0.5;" x="190.060163043" xlink:href="#md4acab13e0" y="41.6423035714"/>
    </g>
   </g>
   <g id="line2d_38"/>
   <g id="matplotlib.axis_3">
    <g id="xtick_2">
     <g id="line2d_39">
      <g>
       <use style="stroke:#000000;stroke-width:0.5;" x="190.060163043" xlink:href="#m93b0483c22" y="358.606875"/>
      </g>
     </g>
     <g id="line2d_40">
      <g>
       <use style="stroke:#000000;stroke-width:0.5;" x="190.060163043" xlink:href="#m741efc42ff" y="13.006875"/>
      </g>
     </g>
     <g id="text_12">
      <!-- 1 -->
      <g transform="translate(187.455788043 371.725)scale(0.12 -0.12)">
       <use xlink:href="#DejaVuSans-31"/>
      </g>
     </g>
    </g>
   </g>
   <g id="matplotlib.axis_4">
    <g id="ytick_11">
     <g id="line2d_41">
      <g>
       <use style="stroke:#000000;stroke-width:0.5;" x="141.538423913" xlink:href="#m728421d6d4" y="358.606875"/>
      </g>
     </g>
     <g id="line2d_42">
      <g>
       <use style="stroke:#000000;stroke-width:0.5;" x="238.581902174" xlink:href="#mcb0005524f" y="358.606875"/>
      </g>
     </g>
     <g id="text_13">
      <!-- 0 -->
      <g transform="translate(131.491548913 361.918125)scale(0.12 -0.12)">
       <use xlink:href="#DejaVuSans-30"/>
      </g>
     </g>
    </g>
    <g id="ytick_12">
     <g id="line2d_43">
      <g>
       <use style="stroke:#000000;stroke-width:0.5;" x="141.538423913" xlink:href="#m728421d6d4" y="309.235446429"/>
      </g>
     </g>
     <g id="line2d_44">
      <g>
       <use style="stroke:#000000;stroke-width:0.5;" x="238.581902174" xlink:href="#mcb0005524f" y="309.235446429"/>
      </g>
     </g>
     <g id="text_14">
      <!-- 10 -->
      <g transform="translate(124.383423913 312.546696429)scale(0.12 -0.12)">
       <use xlink:href="#DejaVuSans-31"/>
       <use x="63.623046875" xlink:href="#DejaVuSans-30"/>
      </g>
     </g>
    </g>
    <g id="ytick_13">
     <g id="line2d_45">
      <g>
       <use style="stroke:#000000;stroke-width:0.5;" x="141.538423913" xlink:href="#m728421d6d4" y="259.864017857"/>
      </g>
     </g>
     <g id="line2d_46">
      <g>
       <use style="stroke:#000000;stroke-width:0.5;" x="238.581902174" xlink:href="#mcb0005524f" y="259.864017857"/>
      </g>
     </g>
     <g id="text_15">
      <!-- 20 -->
      <g transform="translate(123.944673913 263.175267857)scale(0.12 -0.12)">
       <use xlink:href="#DejaVuSans-32"/>
       <use x="63.623046875" xlink:href="#DejaVuSans-30"/>
      </g>
     </g>
    </g>
    <g id="ytick_14">
     <g id="line2d_47">
      <g>
       <use style="stroke:#000000;stroke-width:0.5;" x="141.538423913" xlink:href="#m728421d6d4" y="210.492589286"/>
      </g>
     </g>
     <g id="line2d_48">
      <g>
       <use style="stroke:#000000;stroke-width:0.5;" x="238.581902174" xlink:href="#mcb0005524f" y="210.492589286"/>
      </g>
     </g>
     <g id="text_16">
      <!-- 30 -->
      <g transform="translate(123.980298913 213.803839286)scale(0.12 -0.12)">
       <use xlink:href="#DejaVuSans-33"/>
       <use x="63.623046875" xlink:href="#DejaVuSans-30"/>
      </g>
     </g>
    </g>
    <g id="ytick_15">
     <g id="line2d_49">
      <g>
       <use style="stroke:#000000;stroke-width:0.5;" x="141.538423913" xlink:href="#m728421d6d4" y="161.121160714"/>
      </g>
     </g>
     <g id="line2d_50">
      <g>
       <use style="stroke:#000000;stroke-width:0.5;" x="238.581902174" xlink:href="#mcb0005524f" y="161.121160714"/>
      </g>
     </g>
     <g id="text_17">
      <!-- 40 -->
      <g transform="translate(123.652173913 164.432410714)scale(0.12 -0.12)">
       <use xlink:href="#DejaVuSans-34"/>
       <use x="63.623046875" xlink:href="#DejaVuSans-30"/>
      </g>
     </g>
    </g>
    <g id="ytick_16">
     <g id="line2d_51">
      <g>
       <use style="stroke:#000000;stroke-width:0.5;" x="141.538423913" xlink:href="#m728421d6d4" y="111.749732143"/>
      </g>
     </g>
     <g id="line2d_52">
      <g>
       <use style="stroke:#000000;stroke-width:0.5;" x="238.581902174" xlink:href="#mcb0005524f" y="111.749732143"/>
      </g>
     </g>
     <g id="text_18">
      <!-- 50 -->
      <g transform="translate(123.991548913 115.060982143)scale(0.12 -0.12)">
       <use xlink:href="#DejaVuSans-35"/>
       <use x="63.623046875" xlink:href="#DejaVuSans-30"/>
      </g>
     </g>
    </g>
    <g id="ytick_17">
     <g id="line2d_53">
      <g>
       <use style="stroke:#000000;stroke-width:0.5;" x="141.538423913" xlink:href="#m728421d6d4" y="62.3783035714"/>
      </g>
     </g>
     <g id="line2d_54">
      <g>
       <use style="stroke:#000000;stroke-width:0.5;" x="238.581902174" xlink:href="#mcb0005524f" y="62.3783035714"/>
      </g>
     </g>
     <g id="text_19">
      <!-- 60 -->
      <g transform="translate(123.903423913 65.6895535714)scale(0.12 -0.12)">
       <use xlink:href="#DejaVuSans-36"/>
       <use x="63.623046875" xlink:href="#DejaVuSans-30"/>
      </g>
     </g>
    </g>
    <g id="ytick_18">
     <g id="line2d_55">
      <g>
       <use style="stroke:#000000;stroke-width:0.5;" x="141.538423913" xlink:href="#m728421d6d4" y="13.006875"/>
      </g>
     </g>
     <g id="line2d_56">
      <g>
       <use style="stroke:#000000;stroke-width:0.5;" x="238.581902174" xlink:href="#mcb0005524f" y="13.006875"/>
      </g>
     </g>
     <g id="text_20">
      <!-- 70 -->
      <g transform="translate(124.049673913 16.318125)scale(0.12 -0.12)">
       <use xlink:href="#DejaVuSans-37"/>
       <use x="63.623046875" xlink:href="#DejaVuSans-30"/>
      </g>
     </g>
    </g>
   </g>
   <g id="patch_8">
    <path d="
M141.538 13.0069
L238.582 13.0069" style="fill:none;stroke:#000000;"/>
   </g>
   <g id="patch_9">
    <path d="
M238.582 358.607
L238.582 13.0069" style="fill:none;stroke:#000000;"/>
   </g>
   <g id="patch_10">
    <path d="
M141.538 358.607
L238.582 358.607" style="fill:none;stroke:#000000;"/>
   </g>
   <g id="patch_11">
    <path d="
M141.538 358.607
L141.538 13.0069" style="fill:none;stroke:#000000;"/>
   </g>
  </g>
  <g id="axes_3">
   <g id="patch_12">
    <path d="
M257.991 358.607
L355.034 358.607
L355.034 13.0069
L257.991 13.0069
z
" style="fill:#ffffff;"/>
   </g>
   <g id="line2d_57">
    <path clip-path="url(#pe0497b5590)" d="
M306.512 348.431
L306.512 358.607" style="fill:none;stroke:#0000ff;stroke-dasharray:6.000000,6.000000;stroke-dashoffset:0.0;"/>
   </g>
   <g id="line2d_58">
    <path clip-path="url(#pe0497b5590)" d="
M306.512 266.543
L306.512 149.711" style="fill:none;stroke:#0000ff;stroke-dasharray:6.000000,6.000000;stroke-dashoffset:0.0;"/>
   </g>
   <g id="line2d_59">
    <path clip-path="url(#pe0497b5590)" d="
M302.873 149.711
L310.151 149.711" style="fill:none;stroke:#000000;stroke-linecap:square;"/>
   </g>
   <g id="line2d_60">
    <path clip-path="url(#pe0497b5590)" d="
M302.873 358.607
L310.151 358.607" style="fill:none;stroke:#000000;stroke-linecap:square;"/>
   </g>
   <g id="line2d_61">
    <path clip-path="url(#pe0497b5590)" d="
M299.234 348.431
L313.791 348.431
L313.791 346.295
L310.151 325.967
L313.791 305.639
L313.791 266.543
L299.234 266.543
L299.234 305.639
L302.873 325.967
L299.234 346.295
L299.234 348.431" style="fill:none;stroke:#0000ff;stroke-linecap:square;"/>
   </g>
   <g id="line2d_62">
    <path clip-path="url(#pe0497b5590)" d="
M302.873 325.967
L310.151 325.967" style="fill:none;stroke:#ff0000;stroke-linecap:square;"/>
   </g>
   <g id="line2d_63">
    <g clip-path="url(#pe0497b5590)">
     <use style="fill:#0000ff;stroke:#0000ff;stroke-width:0.5;" x="306.512336957" xlink:href="#md4acab13e0" y="90.190875"/>
     <use style="fill:#0000ff;stroke:#0000ff;stroke-width:0.5;" x="306.512336957" xlink:href="#md4acab13e0" y="109.390875"/>
     <use style="fill:#0000ff;stroke:#0000ff;stroke-width:0.5;" x="306.512336957" xlink:href="#md4acab13e0" y="26.062875"/>
    </g>
   </g>
   <g id="line2d_64"/>
   <g id="matplotlib.axis_5">
    <g id="xtick_3">
     <g id="line2d_65">
      <g>
       <use style="stroke:#000000;stroke-width:0.5;" x="306.512336957" xlink:href="#m93b0483c22" y="358.606875"/>
      </g>
     </g>
     <g id="line2d_66">
      <g>
       <use style="stroke:#000000;stroke-width:0.5;" x="306.512336957" xlink:href="#m741efc42ff" y="13.006875"/>
      </g>
     </g>
     <g id="text_21">
      <!-- 1 -->
      <g transform="translate(303.907961957 371.725)scale(0.12 -0.12)">
       <use xlink:href="#DejaVuSans-31"/>
      </g>
     </g>
    </g>
   </g>
   <g id="matplotlib.axis_6">
    <g id="ytick_19">
     <g id="line2d_67">
      <g>
       <use style="stroke:#000000;stroke-width:0.5;" x="257.990597826" xlink:href="#m728421d6d4" y="358.606875"/>
      </g>
     </g>
     <g id="line2d_68">
      <g>
       <use style="stroke:#000000;stroke-width:0.5;" x="355.034076087" xlink:href="#mcb0005524f" y="358.606875"/>
      </g>
     </g>
     <g id="text_22">
      <!-- 0 -->
      <g transform="translate(247.943722826 361.918125)scale(0.12 -0.12)">
       <use xlink:href="#DejaVuSans-30"/>
      </g>
     </g>
    </g>
    <g id="ytick_20">
     <g id="line2d_69">
      <g>
       <use style="stroke:#000000;stroke-width:0.5;" x="257.990597826" xlink:href="#m728421d6d4" y="320.206875"/>
      </g>
     </g>
     <g id="line2d_70">
      <g>
       <use style="stroke:#000000;stroke-width:0.5;" x="355.034076087" xlink:href="#mcb0005524f" y="320.206875"/>
      </g>
     </g>
     <g id="text_23">
      <!-- 10 -->
      <g transform="translate(240.835597826 323.518125)scale(0.12 -0.12)">
       <use xlink:href="#DejaVuSans-31"/>
       <use x="63.623046875" xlink:href="#DejaVuSans-30"/>
      </g>
     </g>
    </g>
    <g id="ytick_21">
     <g id="line2d_71">
      <g>
       <use style="stroke:#000000;stroke-width:0.5;" x="257.990597826" xlink:href="#m728421d6d4" y="281.806875"/>
      </g>
     </g>
     <g id="line2d_72">
      <g>
       <use style="stroke:#000000;stroke-width:0.5;" x="355.034076087" xlink:href="#mcb0005524f" y="281.806875"/>
      </g>
     </g>
     <g id="text_24">
      <!-- 20 -->
      <g transform="translate(240.396847826 285.118125)scale(0.12 -0.12)">
       <use xlink:href="#DejaVuSans-32"/>
       <use x="63.623046875" xlink:href="#DejaVuSans-30"/>
      </g>
     </g>
    </g>
    <g id="ytick_22">
     <g id="line2d_73">
      <g>
       <use style="stroke:#000000;stroke-width:0.5;" x="257.990597826" xlink:href="#m728421d6d4" y="243.406875"/>
      </g>
     </g>
     <g id="line2d_74">
      <g>
       <use style="stroke:#000000;stroke-width:0.5;" x="355.034076087" xlink:href="#mcb0005524f" y="243.406875"/>
      </g>
     </g>
     <g id="text_25">
      <!-- 30 -->
      <g transform="translate(240.432472826 246.718125)scale(0.12 -0.12)">
       <use xlink:href="#DejaVuSans-33"/>
       <use x="63.623046875" xlink:href="#DejaVuSans-30"/>
      </g>
     </g>
    </g>
    <g id="ytick_23">
     <g id="line2d_75">
      <g>
       <use style="stroke:#000000;stroke-width:0.5;" x="257.990597826" xlink:href="#m728421d6d4" y="205.006875"/>
      </g>
     </g>
     <g id="line2d_76">
      <g>
       <use style="stroke:#000000;stroke-width:0.5;" x="355.034076087" xlink:href="#mcb0005524f" y="205.006875"/>
      </g>
     </g>
     <g id="text_26">
      <!-- 40 -->
      <g transform="translate(240.104347826 208.318125)scale(0.12 -0.12)">
       <use xlink:href="#DejaVuSans-34"/>
       <use x="63.623046875" xlink:href="#DejaVuSans-30"/>
      </g>
     </g>
    </g>
    <g id="ytick_24">
     <g id="line2d_77">
      <g>
       <use style="stroke:#000000;stroke-width:0.5;" x="257.990597826" xlink:href="#m728421d6d4" y="166.606875"/>
      </g>
     </g>
     <g id="line2d_78">
      <g>
       <use style="stroke:#000000;stroke-width:0.5;" x="355.034076087" xlink:href="#mcb0005524f" y="166.606875"/>
      </g>
     </g>
     <g id="text_27">
      <!-- 50 -->
      <g transform="translate(240.443722826 169.918125)scale(0.12 -0.12)">
       <use xlink:href="#DejaVuSans-35"/>
       <use x="63.623046875" xlink:href="#DejaVuSans-30"/>
      </g>
     </g>
    </g>
    <g id="ytick_25">
     <g id="line2d_79">
      <g>
       <use style="stroke:#000000;stroke-width:0.5;" x="257.990597826" xlink:href="#m728421d6d4" y="128.206875"/>
      </g>
     </g>
     <g id="line2d_80">
      <g>
       <use style="stroke:#000000;stroke-width:0.5;" x="355.034076087" xlink:href="#mcb0005524f" y="128.206875"/>
      </g>
     </g>
     <g id="text_28">
      <!-- 60 -->
      <g transform="translate(240.355597826 131.518125)scale(0.12 -0.12)">
       <use xlink:href="#DejaVuSans-36"/>
       <use x="63.623046875" xlink:href="#DejaVuSans-30"/>
      </g>
     </g>
    </g>
    <g id="ytick_26">
     <g id="line2d_81">
      <g>
       <use style="stroke:#000000;stroke-width:0.5;" x="257.990597826" xlink:href="#m728421d6d4" y="89.806875"/>
      </g>
     </g>
     <g id="line2d_82">
      <g>
       <use style="stroke:#000000;stroke-width:0.5;" x="355.034076087" xlink:href="#mcb0005524f" y="89.806875"/>
      </g>
     </g>
     <g id="text_29">
      <!-- 70 -->
      <g transform="translate(240.501847826 93.118125)scale(0.12 -0.12)">
       <use xlink:href="#DejaVuSans-37"/>
       <use x="63.623046875" xlink:href="#DejaVuSans-30"/>
      </g>
     </g>
    </g>
    <g id="ytick_27">
     <g id="line2d_83">
      <g>
       <use style="stroke:#000000;stroke-width:0.5;" x="257.990597826" xlink:href="#m728421d6d4" y="51.406875"/>
      </g>
     </g>
     <g id="line2d_84">
      <g>
       <use style="stroke:#000000;stroke-width:0.5;" x="355.034076087" xlink:href="#mcb0005524f" y="51.406875"/>
      </g>
     </g>
     <g id="text_30">
      <!-- 80 -->
      <g transform="translate(240.331222826 54.718125)scale(0.12 -0.12)">
       <use xlink:href="#DejaVuSans-38"/>
       <use x="63.623046875" xlink:href="#DejaVuSans-30"/>
      </g>
     </g>
    </g>
    <g id="ytick_28">
     <g id="line2d_85">
      <g>
       <use style="stroke:#000000;stroke-width:0.5;" x="257.990597826" xlink:href="#m728421d6d4" y="13.006875"/>
      </g>
     </g>
     <g id="line2d_86">
      <g>
       <use style="stroke:#000000;stroke-width:0.5;" x="355.034076087" xlink:href="#mcb0005524f" y="13.006875"/>
      </g>
     </g>
     <g id="text_31">
      <!-- 90 -->
      <g transform="translate(240.273097826 16.318125)scale(0.12 -0.12)">
       <use xlink:href="#DejaVuSans-39"/>
       <use x="63.623046875" xlink:href="#DejaVuSans-30"/>
      </g>
     </g>
    </g>
   </g>
   <g id="patch_13">
    <path d="
M257.991 13.0069
L355.034 13.0069" style="fill:none;stroke:#000000;"/>
   </g>
   <g id="patch_14">
    <path d="
M355.034 358.607
L355.034 13.0069" style="fill:none;stroke:#000000;"/>
   </g>
   <g id="patch_15">
    <path d="
M257.991 358.607
L355.034 358.607" style="fill:none;stroke:#000000;"/>
   </g>
   <g id="patch_16">
    <path d="
M257.991 358.607
L257.991 13.0069" style="fill:none;stroke:#000000;"/>
   </g>
  </g>
  <g id="axes_4">
   <g id="patch_17">
    <path d="
M374.443 358.607
L471.486 358.607
L471.486 13.0069
L374.443 13.0069
z
" style="fill:#ffffff;"/>
   </g>
   <g id="line2d_87">
    <path clip-path="url(#p101e4619b2)" d="
M422.965 358.607
L422.965 358.607" style="fill:none;stroke:#0000ff;stroke-dasharray:6.000000,6.000000;stroke-dashoffset:0.0;"/>
   </g>
   <g id="line2d_88">
    <path clip-path="url(#p101e4619b2)" d="
M422.965 262.127
L422.965 133.199" style="fill:none;stroke:#0000ff;stroke-dasharray:6.000000,6.000000;stroke-dashoffset:0.0;"/>
   </g>
   <g id="line2d_89">
    <path clip-path="url(#p101e4619b2)" d="
M419.325 133.199
L426.604 133.199" style="fill:none;stroke:#000000;stroke-linecap:square;"/>
   </g>
   <g id="line2d_90">
    <path clip-path="url(#p101e4619b2)" d="
M419.325 358.607
L426.604 358.607" style="fill:none;stroke:#000000;stroke-linecap:square;"/>
   </g>
   <g id="line2d_91">
    <path clip-path="url(#p101e4619b2)" d="
M415.686 358.607
L430.243 358.607
L430.243 354.804
L426.604 335.567
L430.243 316.33
L430.243 262.127
L415.686 262.127
L415.686 316.33
L419.325 335.567
L415.686 354.804
L415.686 358.607" style="fill:none;stroke:#0000ff;stroke-linecap:square;"/>
   </g>
   <g id="line2d_92">
    <path clip-path="url(#p101e4619b2)" d="
M419.325 335.567
L426.604 335.567" style="fill:none;stroke:#ff0000;stroke-linecap:square;"/>
   </g>
   <g id="line2d_93">
    <g clip-path="url(#p101e4619b2)">
     <use style="fill:#0000ff;stroke:#0000ff;stroke-width:0.5;" x="422.96451087" xlink:href="#md4acab13e0" y="73.678875"/>
     <use style="fill:#0000ff;stroke:#0000ff;stroke-width:0.5;" x="422.96451087" xlink:href="#md4acab13e0" y="105.166875"/>
     <use style="fill:#0000ff;stroke:#0000ff;stroke-width:0.5;" x="422.96451087" xlink:href="#md4acab13e0" y="44.110875"/>
     <use style="fill:#0000ff;stroke:#0000ff;stroke-width:0.5;" x="422.96451087" xlink:href="#md4acab13e0" y="111.694875"/>
    </g>
   </g>
   <g id="line2d_94"/>
   <g id="matplotlib.axis_7">
    <g id="xtick_4">
     <g id="line2d_95">
      <g>
       <use style="stroke:#000000;stroke-width:0.5;" x="422.96451087" xlink:href="#m93b0483c22" y="358.606875"/>
      </g>
     </g>
     <g id="line2d_96">
      <g>
       <use style="stroke:#000000;stroke-width:0.5;" x="422.96451087" xlink:href="#m741efc42ff" y="13.006875"/>
      </g>
     </g>
     <g id="text_32">
      <!-- 1 -->
      <g transform="translate(420.36013587 371.725)scale(0.12 -0.12)">
       <use xlink:href="#DejaVuSans-31"/>
      </g>
     </g>
    </g>
   </g>
   <g id="matplotlib.axis_8">
    <g id="ytick_29">
     <g id="line2d_97">
      <g>
       <use style="stroke:#000000;stroke-width:0.5;" x="374.442771739" xlink:href="#m728421d6d4" y="358.606875"/>
      </g>
     </g>
     <g id="line2d_98">
      <g>
       <use style="stroke:#000000;stroke-width:0.5;" x="471.48625" xlink:href="#mcb0005524f" y="358.606875"/>
      </g>
     </g>
     <g id="text_33">
      <!-- 0 -->
      <g transform="translate(364.395896739 361.918125)scale(0.12 -0.12)">
       <use xlink:href="#DejaVuSans-30"/>
      </g>
     </g>
    </g>
    <g id="ytick_30">
     <g id="line2d_99">
      <g>
       <use style="stroke:#000000;stroke-width:0.5;" x="374.442771739" xlink:href="#m728421d6d4" y="320.206875"/>
      </g>
     </g>
     <g id="line2d_100">
      <g>
       <use style="stroke:#000000;stroke-width:0.5;" x="471.48625" xlink:href="#mcb0005524f" y="320.206875"/>
      </g>
     </g>
     <g id="text_34">
      <!-- 10 -->
      <g transform="translate(357.287771739 323.518125)scale(0.12 -0.12)">
       <use xlink:href="#DejaVuSans-31"/>
       <use x="63.623046875" xlink:href="#DejaVuSans-30"/>
      </g>
     </g>
    </g>
    <g id="ytick_31">
     <g id="line2d_101">
      <g>
       <use style="stroke:#000000;stroke-width:0.5;" x="374.442771739" xlink:href="#m728421d6d4" y="281.806875"/>
      </g>
     </g>
     <g id="line2d_102">
      <g>
       <use style="stroke:#000000;stroke-width:0.5;" x="471.48625" xlink:href="#mcb0005524f" y="281.806875"/>
      </g>
     </g>
     <g id="text_35">
      <!-- 20 -->
      <g transform="translate(356.849021739 285.118125)scale(0.12 -0.12)">
       <use xlink:href="#DejaVuSans-32"/>
       <use x="63.623046875" xlink:href="#DejaVuSans-30"/>
      </g>
     </g>
    </g>
    <g id="ytick_32">
     <g id="line2d_103">
      <g>
       <use style="stroke:#000000;stroke-width:0.5;" x="374.442771739" xlink:href="#m728421d6d4" y="243.406875"/>
      </g>
     </g>
     <g id="line2d_104">
      <g>
       <use style="stroke:#000000;stroke-width:0.5;" x="471.48625" xlink:href="#mcb0005524f" y="243.406875"/>
      </g>
     </g>
     <g id="text_36">
      <!-- 30 -->
      <g transform="translate(356.884646739 246.718125)scale(0.12 -0.12)">
       <use xlink:href="#DejaVuSans-33"/>
       <use x="63.623046875" xlink:href="#DejaVuSans-30"/>
      </g>
     </g>
    </g>
    <g id="ytick_33">
     <g id="line2d_105">
      <g>
       <use style="stroke:#000000;stroke-width:0.5;" x="374.442771739" xlink:href="#m728421d6d4" y="205.006875"/>
      </g>
     </g>
     <g id="line2d_106">
      <g>
       <use style="stroke:#000000;stroke-width:0.5;" x="471.48625" xlink:href="#mcb0005524f" y="205.006875"/>
      </g>
     </g>
     <g id="text_37">
      <!-- 40 -->
      <g transform="translate(356.556521739 208.318125)scale(0.12 -0.12)">
       <use xlink:href="#DejaVuSans-34"/>
       <use x="63.623046875" xlink:href="#DejaVuSans-30"/>
      </g>
     </g>
    </g>
    <g id="ytick_34">
     <g id="line2d_107">
      <g>
       <use style="stroke:#000000;stroke-width:0.5;" x="374.442771739" xlink:href="#m728421d6d4" y="166.606875"/>
      </g>
     </g>
     <g id="line2d_108">
      <g>
       <use style="stroke:#000000;stroke-width:0.5;" x="471.48625" xlink:href="#mcb0005524f" y="166.606875"/>
      </g>
     </g>
     <g id="text_38">
      <!-- 50 -->
      <g transform="translate(356.895896739 169.918125)scale(0.12 -0.12)">
       <use xlink:href="#DejaVuSans-35"/>
       <use x="63.623046875" xlink:href="#DejaVuSans-30"/>
      </g>
     </g>
    </g>
    <g id="ytick_35">
     <g id="line2d_109">
      <g>
       <use style="stroke:#000000;stroke-width:0.5;" x="374.442771739" xlink:href="#m728421d6d4" y="128.206875"/>
      </g>
     </g>
     <g id="line2d_110">
      <g>
       <use style="stroke:#000000;stroke-width:0.5;" x="471.48625" xlink:href="#mcb0005524f" y="128.206875"/>
      </g>
     </g>
     <g id="text_39">
      <!-- 60 -->
      <g transform="translate(356.807771739 131.518125)scale(0.12 -0.12)">
       <use xlink:href="#DejaVuSans-36"/>
       <use x="63.623046875" xlink:href="#DejaVuSans-30"/>
      </g>
     </g>
    </g>
    <g id="ytick_36">
     <g id="line2d_111">
      <g>
       <use style="stroke:#000000;stroke-width:0.5;" x="374.442771739" xlink:href="#m728421d6d4" y="89.806875"/>
      </g>
     </g>
     <g id="line2d_112">
      <g>
       <use style="stroke:#000000;stroke-width:0.5;" x="471.48625" xlink:href="#mcb0005524f" y="89.806875"/>
      </g>
     </g>
     <g id="text_40">
      <!-- 70 -->
      <g transform="translate(356.954021739 93.118125)scale(0.12 -0.12)">
       <use xlink:href="#DejaVuSans-37"/>
       <use x="63.623046875" xlink:href="#DejaVuSans-30"/>
      </g>
     </g>
    </g>
    <g id="ytick_37">
     <g id="line2d_113">
      <g>
       <use style="stroke:#000000;stroke-width:0.5;" x="374.442771739" xlink:href="#m728421d6d4" y="51.406875"/>
      </g>
     </g>
     <g id="line2d_114">
      <g>
       <use style="stroke:#000000;stroke-width:0.5;" x="471.48625" xlink:href="#mcb0005524f" y="51.406875"/>
      </g>
     </g>
     <g id="text_41">
      <!-- 80 -->
      <g transform="translate(356.783396739 54.718125)scale(0.12 -0.12)">
       <use xlink:href="#DejaVuSans-38"/>
       <use x="63.623046875" xlink:href="#DejaVuSans-30"/>
      </g>
     </g>
    </g>
    <g id="ytick_38">
     <g id="line2d_115">
      <g>
       <use style="stroke:#000000;stroke-width:0.5;" x="374.442771739" xlink:href="#m728421d6d4" y="13.006875"/>
      </g>
     </g>
     <g id="line2d_116">
      <g>
       <use style="stroke:#000000;stroke-width:0.5;" x="471.48625" xlink:href="#mcb0005524f" y="13.006875"/>
      </g>
     </g>
     <g id="text_42">
      <!-- 90 -->
      <g transform="translate(356.725271739 16.318125)scale(0.12 -0.12)">
       <use xlink:href="#DejaVuSans-39"/>
       <use x="63.623046875" xlink:href="#DejaVuSans-30"/>
      </g>
     </g>
    </g>
   </g>
   <g id="patch_18">
    <path d="
M374.443 13.0069
L471.486 13.0069" style="fill:none;stroke:#000000;"/>
   </g>
   <g id="patch_19">
    <path d="
M471.486 358.607
L471.486 13.0069" style="fill:none;stroke:#000000;"/>
   </g>
   <g id="patch_20">
    <path d="
M374.443 358.607
L471.486 358.607" style="fill:none;stroke:#000000;"/>
   </g>
   <g id="patch_21">
    <path d="
M374.443 358.607
L374.443 13.0069" style="fill:none;stroke:#000000;"/>
   </g>
  </g>
 </g>
 <defs>
  <clipPath id="p101e4619b2">
   <rect height="345.6" width="97.0434782609" x="374.442771739" y="13.006875"/>
  </clipPath>
  <clipPath id="pc15067f768">
   <rect height="345.6" width="97.0434782609" x="141.538423913" y="13.006875"/>
  </clipPath>
  <clipPath id="p520960e547">
   <rect height="345.6" width="97.0434782609" x="25.08625" y="13.006875"/>
  </clipPath>
  <clipPath id="pe0497b5590">
   <rect height="345.6" width="97.0434782609" x="257.990597826" y="13.006875"/>
  </clipPath>
 </defs>
</svg>
